<?xml version="1.0" standalone="no"?>
<!DOCTYPE svg PUBLIC "-//W3C//DTD SVG 20010904//EN"
 "http://www.w3.org/TR/2001/REC-SVG-20010904/DTD/svg10.dtd">
<svg version="1.0" xmlns="http://www.w3.org/2000/svg"
 width="273.000000pt" height="273.000000pt" viewBox="0 0 273.000000 273.000000"
 preserveAspectRatio="xMidYMid meet">
<metadata>
Created by potrace 1.14, written by Peter Selinger 2001-2017
</metadata>
<g transform="translate(0.000000,273.000000) scale(0.100000,-0.100000)"
fill="#000000" stroke="none">
<path d="M0 1365 l0 -1365 1365 0 1365 0 0 1365 0 1365 -610 0 -610 0 0 -760
c0 -826 -2 -802 55 -828 14 -7 57 -12 95 -12 l70 0 0 -450 c0 -489 0 -493 -55
-518 -37 -17 -573 -17 -610 0 -55 25 -55 29 -55 518 l0 450 65 0 c35 0 76 5
90 12 57 26 55 2 55 828 l0 760 -250 0 -250 0 0 -760 c0 -567 3 -766 12 -785
18 -39 57 -55 138 -55 l70 0 0 -450 c0 -489 0 -493 -55 -518 -18 -8 -110 -12
-306 -12 -306 0 -325 3 -348 57 -8 21 -11 327 -9 1188 l3 1160 28 47 c31 53
79 94 134 114 34 12 15 13 -174 14 l-213 0 0 -1365z"/>
</g>
</svg>
